<?xml version="1.0" standalone="no"?>
<svg xmlns:xlink="http://www.w3.org/1999/xlink" id="wave" style="transform:rotate(0deg); transition: 0.3s" viewBox="0 0 1440 490" version="1.1" xmlns="http://www.w3.org/2000/svg"><defs><linearGradient id="sw-gradient-0" x1="0" x2="0" y1="1" y2="0"><stop stop-color="rgba(31.878, 91.941, 139.204, 1)" offset="0%"/><stop stop-color="rgba(0, 0, 0, 1)" offset="100%"/></linearGradient></defs><path style="transform:translate(0, 0px); opacity:1" fill="url(#sw-gradient-0)" d="M0,343L34.3,318.5C68.6,294,137,245,206,253.2C274.3,261,343,327,411,367.5C480,408,549,425,617,400.2C685.7,376,754,310,823,285.8C891.4,261,960,278,1029,294C1097.1,310,1166,327,1234,310.3C1302.9,294,1371,245,1440,228.7C1508.6,212,1577,229,1646,236.8C1714.3,245,1783,245,1851,253.2C1920,261,1989,278,2057,245C2125.7,212,2194,131,2263,155.2C2331.4,180,2400,310,2469,375.7C2537.1,441,2606,441,2674,400.2C2742.9,359,2811,278,2880,220.5C2948.6,163,3017,131,3086,155.2C3154.3,180,3223,261,3291,294C3360,327,3429,310,3497,302.2C3565.7,294,3634,294,3703,261.3C3771.4,229,3840,163,3909,187.8C3977.1,212,4046,327,4114,334.8C4182.9,343,4251,245,4320,228.7C4388.6,212,4457,278,4526,318.5C4594.3,359,4663,376,4731,383.8C4800,392,4869,392,4903,392L4937.1,392L4937.1,490L4902.9,490C4868.6,490,4800,490,4731,490C4662.9,490,4594,490,4526,490C4457.1,490,4389,490,4320,490C4251.4,490,4183,490,4114,490C4045.7,490,3977,490,3909,490C3840,490,3771,490,3703,490C3634.3,490,3566,490,3497,490C3428.6,490,3360,490,3291,490C3222.9,490,3154,490,3086,490C3017.1,490,2949,490,2880,490C2811.4,490,2743,490,2674,490C2605.7,490,2537,490,2469,490C2400,490,2331,490,2263,490C2194.3,490,2126,490,2057,490C1988.6,490,1920,490,1851,490C1782.9,490,1714,490,1646,490C1577.1,490,1509,490,1440,490C1371.4,490,1303,490,1234,490C1165.7,490,1097,490,1029,490C960,490,891,490,823,490C754.3,490,686,490,617,490C548.6,490,480,490,411,490C342.9,490,274,490,206,490C137.1,490,69,490,34,490L0,490Z"/></svg>